{"title":"Afterlife S02","uid":11381513,"size":2778379974,"categoryP":"video","categoryS":"tv_shows","magnet":"?xt=urn:btih:c61dc2c9203742b77cecf751726a8bc8af8d383e&amp;dn=Afterlife+S02&amp;tr=udp%3A%2F%2Ftracker.openbittorrent.com%3A80&amp;tr=udp%3A%2F%2Fopen.demonii.com%3A1337&amp;tr=udp%3A%2F%2Ftracker.coppersurfer.tk%3A6969&amp;tr=udp%3A%2F%2Fexodus.desync.com%3A6969","seeders":2,"leechers":0,"uploader":"RedBaron58","files":8,"time":1415220813,"description":"AfterLife (ITV) S02 - Chiller Drama x264 mp4\n  &lt;a href=&quot;\nhttp://www.imdb.com/title/tt0435937/&quot; rel=&quot;nofollow&quot; target=&quot;_NEW&quot;&gt;\nhttp://www.imdb.com/title/tt0435937/&lt;/a&gt;\n\nTrailer:(Fan Video)\n\n\n\nThank you for your kind comments and thumbs ups on my other torrents, your feedback is welcome.\n\n\nAbout the Series:\nThe main characters of the series are the psychic, Alison Mundy (played by Lesley Sharp) and the academic \nwho becomes involved with her due to his skeptical interest in the paranormal, \nDr Robert Bridge (Andrew Lincoln). \nSet in Bristol, each of the eight 45 minute episodes of the second series sees Alison become involved in the \nappearance of a spirit and attempting to discover why it has come back to haunt the living. \n\n\n\nI hope you enjoy.\n\n\nTechnical: (All episodes are encoded to the same settings)\n\nGeneral\nComplete name                            : H:Afterlife S02Afterlife S02E01 Roadside Bouquets x264 RB58.mp4\nFormat                                   : MPEG-4\nFormat profile                           : Base Media / Version 2\nCodec ID                                 : mp42\nFile size                                : 332 MiB\nDuration                                 : 46mn 26s\nOverall bit rate mode                    : Variable\nOverall bit rate                         : 1 000 Kbps\nEncoded date                             : UTC 2014-11-03 12:56:23\nTagged date                              : UTC 2014-11-03 13:07:29\nWriting application                      : HandBrake 0.9.8 2012071700\n\nVideo\nID                                       : 1\nFormat                                   : AVC\nFormat/Info                              : Advanced Video Codec\nFormat profile                           : &lt;a class=&quot;__cf_email__&quot; href=&quot;/cdn-cgi/l/email-protection&quot; data-cfemail=&quot;7a371b13143a3649544a&quot;&gt;[email&amp;#160;protected]&lt;/a&gt;&lt;script cf-hash='f9e31' type=&quot;text/javascript&quot;&gt;\n/* &lt;![CDATA[ */!function(){try{var t=&quot;currentScript&quot;in document?document.currentScript:function(){for(var t=document.getElementsByTagName(&quot;script&quot;),e=t.length;e--;)if(t[e].getAttribute(&quot;cf-hash&quot;))return t[e]}();if(t&amp;&amp;t.previousSibling){var e,r,n,i,c=t.previousSibling,a=c.getAttribute(&quot;data-cfemail&quot;);if(a){for(e=&quot;&quot;,r=parseInt(a.substr(0,2),16),n=2;a.length-n;n+=2)i=parseInt(a.substr(n,2),16)^r,e+=String.fromCharCode(i);e=document.createTextNode(e),c.parentNode.replaceChild(e,c)}}}catch(u){}}();/* ]]&gt; */&lt;/script&gt;\nFormat settings, CABAC                   : Yes\nFormat settings, ReFrames                : 4 frames\nCodec ID                                 : avc1\nCodec ID/Info                            : Advanced Video Coding\nDuration                                 : 46mn 26s\nBit rate mode                            : Variable\nBit rate                                 : 900 Kbps\nWidth                                    : 712 pixels\nHeight                                   : 576 pixels\nDisplay aspect ratio                     : 16:9\nFrame rate mode                          : Constant\nFrame rate                               : 25.000 fps\nColor space                              : YUV\nChroma subsampling                       : 4:2:0\nBit depth                                : 8 bits\nScan type                                : Progressive\nBits/(Pixel*Frame)                       : 0.088\nStream size                              : 299 MiB (90%)\nWriting library                          : x264 core 120\nEncoding settings                        : cabac=1 / ref=1 / deblock=1:0:0\nEncoded date                             : UTC 2014-11-03 12:56:23\nTagged date                              : UTC 2014-11-03 13:07:29\nColor primaries                          : BT.601 NTSC\nTransfer characteristics                 : BT.709\nMatrix coefficients                      : BT.601\n\nAudio\nID                                       : 2\nFormat                                   : AAC\nFormat/Info                              : Advanced Audio Codec\nFormat profile                           : LC\nCodec ID                                 : 40\nDuration                                 : 46mn 25s\nBit rate mode                            : Variable\nBit rate                                 : 96.0 Kbps\nMaximum bit rate                         : 118 Kbps\nChannel(s)                               : 2 channels\nChannel positions                        : Front: L R\nSampling rate                            : 48.0 KHz\nCompression mode                         : Lossy\nDelay relative to video                  : 80ms\nStream size                              : 31.9 MiB (10%)\nLanguage                                 : English\nEncoded date                             : UTC 2014-11-03 12:56:23\nTagged date                              : UTC 2014-11-03 13:07:28","torrent":{"xt":"urn:btih:c61dc2c9203742b77cecf751726a8bc8af8d383e","amp;dn":"Afterlife+S02","amp;tr":["udp%3A%2F%2Ftracker.openbittorrent.com%3A80","udp%3A%2F%2Fopen.demonii.com%3A1337","udp%3A%2F%2Ftracker.coppersurfer.tk%3A6969","udp%3A%2F%2Fexodus.desync.com%3A6969"],"infoHash":"c61dc2c9203742b77cecf751726a8bc8af8d383e","infoHashBuffer":{"type":"Buffer","data":[198,29,194,201,32,55,66,183,124,236,247,81,114,106,139,200,175,141,56,62]},"announce":[],"urlList":[]}}